<svg width="10" height="8" viewBox="0 0 10 8" fill="none" xmlns="http://www.w3.org/2000/svg">
<path d="M2.87337 7.84256C2.95432 7.92351 3.06414 7.96898 3.17861 7.96898C3.29312 7.96898 3.4029 7.92349 3.48382 7.84256L9.36863 1.95776C9.4496 1.87681 9.49507 1.76703 9.49507 1.65255C9.49507 1.53805 9.4496 1.42826 9.36863 1.34731L8.14771 0.126421C7.97916 -0.0421259 7.70583 -0.0421547 7.53726 0.126421L3.17873 4.48501L1.95778 3.26406C1.87683 3.18311 1.76701 3.13762 1.65254 3.13762C1.53806 3.13762 1.42828 3.18311 1.34733 3.26406L0.12641 4.48498C-0.0421367 4.65356 -0.0421367 4.92685 0.12641 5.09543L2.87337 7.84256Z" fill="white"/>
</svg>
